<svg width="40" height="40" viewBox="0 0 40 40" fill="none" xmlns="http://www.w3.org/2000/svg">
<circle cx="20" cy="20" r="18" fill="#FF07AA"/>
<path d="M26.3912 22.5068L20.9736 11.0584L20.0343 9.20001L19.1409 11.0584L11.12 27.92H13.1942L14.193 25.699L15.2071 23.4935L17.8699 17.4563L20.0343 12.944L24.802 23.4935L25.3004 24.568L26.8609 27.92H28.9486L26.3912 22.5068Z" fill="white"/>
<path d="M26.3912 22.5068L20.9736 11.0584L20.0343 9.20001L19.1409 11.0584L11.12 27.92H13.1942L14.193 25.699L15.2071 23.4935L17.8699 17.4563L20.0343 12.944L24.802 23.4935L25.3004 24.568L26.8609 27.92H28.9486L26.3912 22.5068Z" stroke="white"/>
</svg>
