<svg width="16" height="16" viewBox="0 0 24 24" fill="none" xmlns="http://www.w3.org/2000/svg">
    <path d="M12 4C10.0204 4.00602 8.10822 4.69838 6.609 5.952C5.46 6.912 4.6275 8.16291 4.413 9.41818C1.899 9.95636 0 12.08 0 14.6444C0 17.6233 2.562 20 5.6715 20H19.0305C21.753 20 24 17.92 24 15.3062C24 12.9265 22.137 10.9876 19.749 10.6604C19.3845 6.90764 16.035 4 12 4ZM15.531 11.4851C15.6007 11.5527 15.656 11.633 15.6938 11.7213C15.7315 11.8097 15.7509 11.9044 15.7509 12C15.7509 12.0956 15.7315 12.1903 15.6938 12.2787C15.656 12.367 15.6007 12.4473 15.531 12.5149C15.4613 12.5825 15.3785 12.6362 15.2874 12.6728C15.1963 12.7094 15.0986 12.7282 15 12.7282C14.9014 12.7282 14.8037 12.7094 14.7126 12.6728C14.6215 12.6362 14.5387 12.5825 14.469 12.5149L12.75 10.8465V16.3636C12.75 16.5565 12.671 16.7415 12.5303 16.8779C12.3897 17.0143 12.1989 17.0909 12 17.0909C11.8011 17.0909 11.6103 17.0143 11.4697 16.8779C11.329 16.7415 11.25 16.5565 11.25 16.3636V10.8465L9.531 12.5149C9.39017 12.6515 9.19916 12.7282 9 12.7282C8.80084 12.7282 8.60983 12.6515 8.469 12.5149C8.32817 12.3783 8.24905 12.1931 8.24905 12C8.24905 11.8069 8.32817 11.6217 8.469 11.4851L11.469 8.576C11.5387 8.50827 11.6214 8.45454 11.7125 8.41787C11.8037 8.38121 11.9013 8.36234 12 8.36234C12.0987 8.36234 12.1963 8.38121 12.2874 8.41787C12.3786 8.45454 12.4613 8.50827 12.531 8.576L15.531 11.4851Z" fill="#606060"/>
</svg>